<svg id="visual" viewBox="0 0 960 540" width="960" height="540" xmlns="http://www.w3.org/2000/svg" xmlns:xlink="http://www.w3.org/1999/xlink" version="1.1"><rect x="0" y="0" width="960" height="540" fill="#151515"></rect><path d="M0 461L22.8 451.8C45.7 442.7 91.3 424.3 137 422C182.7 419.7 228.3 433.3 274 437.2C319.7 441 365.3 435 411.2 435.8C457 436.7 503 444.3 548.8 448C594.7 451.7 640.3 451.3 686 450C731.7 448.7 777.3 446.3 823 446C868.7 445.7 914.3 447.3 937.2 448.2L960 449L960 541L937.2 541C914.3 541 868.7 541 823 541C777.3 541 731.7 541 686 541C640.3 541 594.7 541 548.8 541C503 541 457 541 411.2 541C365.3 541 319.7 541 274 541C228.3 541 182.7 541 137 541C91.3 541 45.7 541 22.8 541L0 541Z" fill="#fa7268"></path><path d="M0 463L22.8 459.7C45.7 456.3 91.3 449.7 137 450.2C182.7 450.7 228.3 458.3 274 463.3C319.7 468.3 365.3 470.7 411.2 471.5C457 472.3 503 471.7 548.8 465.3C594.7 459 640.3 447 686 444.7C731.7 442.3 777.3 449.7 823 454.8C868.7 460 914.3 463 937.2 464.5L960 466L960 541L937.2 541C914.3 541 868.7 541 823 541C777.3 541 731.7 541 686 541C640.3 541 594.7 541 548.8 541C503 541 457 541 411.2 541C365.3 541 319.7 541 274 541C228.3 541 182.7 541 137 541C91.3 541 45.7 541 22.8 541L0 541Z" fill="#eb5967"></path><path d="M0 484L22.8 487C45.7 490 91.3 496 137 496.5C182.7 497 228.3 492 274 490.8C319.7 489.7 365.3 492.3 411.2 488.7C457 485 503 475 548.8 475.2C594.7 475.3 640.3 485.7 686 489.3C731.7 493 777.3 490 823 489.7C868.7 489.3 914.3 491.7 937.2 492.8L960 494L960 541L937.2 541C914.3 541 868.7 541 823 541C777.3 541 731.7 541 686 541C640.3 541 594.7 541 548.8 541C503 541 457 541 411.2 541C365.3 541 319.7 541 274 541C228.3 541 182.7 541 137 541C91.3 541 45.7 541 22.8 541L0 541Z" fill="#da3f67"></path><path d="M0 518L22.8 513.8C45.7 509.7 91.3 501.3 137 500.2C182.7 499 228.3 505 274 505.5C319.7 506 365.3 501 411.2 498.3C457 495.7 503 495.3 548.8 495.7C594.7 496 640.3 497 686 497.7C731.7 498.3 777.3 498.7 823 499.5C868.7 500.3 914.3 501.7 937.2 502.3L960 503L960 541L937.2 541C914.3 541 868.7 541 823 541C777.3 541 731.7 541 686 541C640.3 541 594.7 541 548.8 541C503 541 457 541 411.2 541C365.3 541 319.7 541 274 541C228.3 541 182.7 541 137 541C91.3 541 45.7 541 22.8 541L0 541Z" fill="#c62368"></path></svg>