<svg id="visual" viewBox="0 0 960 540" width="960" height="540" xmlns="http://www.w3.org/2000/svg" xmlns:xlink="http://www.w3.org/1999/xlink" version="1.1"><rect width="960" height="540" fill="#151515"></rect><g><g transform="translate(176 533)"><path d="M89.3 -32.6C100.5 5.3 83.7 48.7 51.8 72C20 95.3 -27 98.5 -56.6 77.1C-86.3 55.8 -98.8 9.8 -86.5 -29.7C-74.2 -69.2 -37.1 -102.2 1 -102.5C39.1 -102.8 78.2 -70.5 89.3 -32.6Z" stroke="#fffd98" fill="none" stroke-width="20"></path></g><g transform="translate(358 230)"><path d="M73.9 -24.9C84.3 8 73.4 46.9 45.3 68.8C17.2 90.8 -27.9 95.7 -55.2 75.9C-82.4 56.1 -91.7 11.6 -79.6 -23.6C-67.4 -58.9 -33.7 -85 -1 -84.7C31.8 -84.4 63.5 -57.7 73.9 -24.9Z" stroke="#fffd98" fill="none" stroke-width="20"></path></g><g transform="translate(822 55)"><path d="M48.8 -15.9C55.4 4.3 47.3 29.2 29.7 42.4C12 55.6 -15.3 57.1 -33.6 44.2C-51.9 31.4 -61.3 4.2 -54.2 -16.7C-47.1 -37.7 -23.5 -52.4 -1.2 -52C21.1 -51.6 42.3 -36.1 48.8 -15.9Z" stroke="#fffd98" fill="none" stroke-width="20"></path></g><g transform="translate(911 475)"><path d="M67.8 -22.7C77.9 8.9 69.1 45.9 45.7 62.8C22.4 79.7 -15.4 76.5 -42.9 57C-70.4 37.5 -87.6 1.7 -78.7 -28.2C-69.9 -58.2 -34.9 -82.3 -3 -81.3C28.9 -80.3 57.8 -54.3 67.8 -22.7Z" stroke="#fffd98" fill="none" stroke-width="20"></path></g></g></svg>