<svg id="visual" viewBox="0 0 960 540" width="960" height="540" xmlns="http://www.w3.org/2000/svg" xmlns:xlink="http://www.w3.org/1999/xlink" version="1.1"><rect x="0" y="0" width="960" height="540" fill="#151515"></rect><defs><linearGradient id="grad1_0" x1="43.8%" y1="100%" x2="100%" y2="0%"><stop offset="14.444444444444446%" stop-color="#e94f37" stop-opacity="1"></stop><stop offset="85.55555555555554%" stop-color="#e94f37" stop-opacity="1"></stop></linearGradient></defs><defs><linearGradient id="grad1_1" x1="43.8%" y1="100%" x2="100%" y2="0%"><stop offset="14.444444444444446%" stop-color="#e94f37" stop-opacity="1"></stop><stop offset="85.55555555555554%" stop-color="#151515" stop-opacity="1"></stop></linearGradient></defs><defs><linearGradient id="grad2_0" x1="0%" y1="100%" x2="56.3%" y2="0%"><stop offset="14.444444444444446%" stop-color="#e94f37" stop-opacity="1"></stop><stop offset="85.55555555555554%" stop-color="#e94f37" stop-opacity="1"></stop></linearGradient></defs><defs><linearGradient id="grad2_1" x1="0%" y1="100%" x2="56.3%" y2="0%"><stop offset="14.444444444444446%" stop-color="#151515" stop-opacity="1"></stop><stop offset="85.55555555555554%" stop-color="#e94f37" stop-opacity="1"></stop></linearGradient></defs><g transform="translate(960, 540)"><path d="M-324 0C-303.6 -34.6 -283.1 -69.1 -271.6 -112.5C-260.1 -155.9 -257.6 -208.1 -229.1 -229.1C-200.6 -250.1 -146.2 -239.8 -103.7 -250.4C-61.2 -261 -30.6 -292.5 0 -324L0 0Z" fill="#793426"></path><path d="M-162 0C-151.8 -17.3 -141.6 -34.6 -135.8 -56.3C-130.1 -78 -128.8 -104.1 -114.6 -114.6C-100.3 -125 -73.1 -119.9 -51.9 -125.2C-30.6 -130.5 -15.3 -146.2 0 -162L0 0Z" fill="#e94f37"></path></g><g transform="translate(0, 0)"><path d="M324 0C324.2 46.8 324.3 93.5 299.3 124C274.3 154.5 224.2 168.7 190.2 190.2C156.2 211.8 138.5 240.7 109.4 264.2C80.4 287.8 40.2 305.9 0 324L0 0Z" fill="#793426"></path><path d="M162 0C162.1 23.4 162.2 46.8 149.7 62C137.2 77.2 112.1 84.3 95.1 95.1C78.1 105.9 69.2 120.4 54.7 132.1C40.2 143.9 20.1 152.9 0 162L0 0Z" fill="#e94f37"></path></g></svg>